# xmcd
#
# Track frame offsets: 
#        150
#        22057
#        40245
#        66252
#        88230
#        110540
#        127705
#        153357
#        171357
#        194805
#        228772
#        247485
#        270630
#        293770
#
# Disc length: 4249 seconds
#
# Revision: 0
# Processed by: cddbd v1.5.2PL0 Copyright (c) Steve Scherf et al.
# Submitted via: ExactAudioCopyFreeDBPlugin 1.0
#
DISCID=ce10970e
DTITLE=Kenneth "Babyface" Edmonds - Babyface   A Collection Of His Gre
DTITLE=atest Hits
DYEAR=2000
DGENRE=Soul
TTITLE0=For The Cool In You
TTITLE1=It愀 No Crime
TTITLE2=Whip Appeal
TTITLE3=Never Keeping Secrets
TTITLE4=Every Time I Close My Eyes
TTITLE5=When Can I See You
TTITLE6=Reason For Breathing (Album Edit)
TTITLE7=This Is For The Lover In You
TTITLE8=How Come, How Long
TTITLE9=Babyface, feat. Eric Clapton - Change The World
TTITLE10=I Love You Babe
TTITLE11=Soon As I Get Home
TTITLE12=Where Will You Go
TTITLE13=When Men Grow Old
EXTD=
EXTT0=
EXTT1=
EXTT2=
EXTT3=
EXTT4=
EXTT5=
EXTT6=
EXTT7=
EXTT8=
EXTT9=
EXTT10=
EXTT11=
EXTT12=
EXTT13=
PLAYORDER=
